<?xml version="1.0" encoding="UTF-8" ?>
<!DOCTYPE svg PUBLIC "-//W3C//DTD SVG 1.1//EN" "http://www.w3.org/Graphics/SVG/1.1/DTD/svg11.dtd">
<svg width="128" height="128" viewBox="0 0 1024 1024" version="1.1" xmlns="http://www.w3.org/2000/svg">
<g id="#FFFFFFff">
<path fill="#FFFFFF" opacity="1.00" d=" M 146.30 201.46 C 271.86 201.58 397.43 201.45 523.00 201.56 C 520.76 206.80 516.58 210.84 513.50 215.57 C 502.73 230.44 491.42 244.91 480.83 259.93 C 466.89 278.27 453.59 297.10 439.63 315.45 C 433.36 324.80 426.16 333.48 419.66 342.67 C 418.10 344.77 417.17 347.47 414.96 349.00 C 411.73 350.11 408.32 350.63 404.98 351.32 C 394.27 353.37 384.12 357.50 374.19 361.90 C 364.48 366.04 355.56 371.81 346.90 377.79 C 338.67 383.46 330.79 389.69 324.03 397.08 C 311.78 410.49 300.82 425.42 293.86 442.32 C 290.73 450.20 286.80 457.74 284.65 465.98 C 284.54 466.71 284.33 468.17 284.22 468.90 C 282.15 474.65 281.79 480.84 280.24 486.75 C 277.92 501.35 277.86 516.30 279.43 530.98 C 279.50 533.23 277.96 535.11 276.84 536.94 C 267.66 549.55 258.29 562.02 249.24 574.73 C 245.64 580.75 240.56 585.68 236.78 591.58 C 230.05 600.11 224.51 609.51 217.47 617.80 C 208.26 630.46 199.18 643.21 189.59 655.58 C 182.69 664.17 177.21 673.79 170.12 682.23 C 163.95 690.42 158.11 698.85 152.12 707.17 C 141.86 719.92 133.05 733.77 122.76 746.50 C 118.08 753.25 113.07 759.77 108.13 766.33 C 107.85 766.34 107.29 766.35 107.01 766.35 C 103.99 760.09 99.88 754.46 96.72 748.28 C 90.87 737.04 84.99 725.78 80.13 714.07 C 74.57 704.64 71.30 694.07 66.19 684.42 C 64.84 682.14 64.27 679.56 64.26 676.94 C 72.77 665.24 81.96 654.05 90.05 642.06 C 110.24 615.73 129.25 588.57 149.15 562.04 C 154.49 555.61 158.73 548.39 163.80 541.76 C 174.28 528.51 184.01 514.71 193.97 501.07 C 202.37 490.07 210.13 478.60 218.54 467.60 C 224.35 460.57 228.87 452.58 234.80 445.63 C 254.12 419.36 273.24 392.95 293.08 367.07 C 300.76 356.13 308.87 345.50 316.79 334.72 C 327.48 320.02 338.15 305.30 349.04 290.75 C 348.55 290.03 348.06 289.33 347.57 288.62 C 262.36 288.86 177.14 288.62 91.93 288.74 C 90.61 288.74 89.26 288.64 88.05 288.06 C 107.32 259.13 126.79 230.25 146.30 201.46 Z" />
<path fill="#FFFFFF" opacity="1.00" d=" M 722.53 323.89 C 732.24 331.65 739.73 341.74 748.27 350.70 C 762.54 366.10 776.70 381.60 790.64 397.30 C 798.94 405.99 806.91 414.99 814.97 423.90 C 820.82 429.78 826.30 436.00 831.66 442.33 C 849.55 461.19 866.63 480.79 884.01 500.11 C 884.59 499.85 885.76 499.33 886.34 499.06 C 886.42 455.63 886.47 412.20 886.34 368.77 C 890.07 367.31 894.13 367.87 898.04 367.82 C 918.02 367.82 938.01 367.89 957.99 367.78 C 959.92 367.69 961.83 368.16 963.62 368.87 C 963.49 473.57 963.63 578.28 963.55 682.98 C 963.38 691.06 963.99 699.16 963.24 707.22 C 956.83 700.15 950.16 693.33 943.93 686.11 C 937.25 679.39 930.81 672.46 924.75 665.19 C 919.49 659.14 913.26 654.00 908.37 647.63 C 900.28 639.02 892.32 630.29 884.39 621.54 C 879.33 616.59 875.23 610.77 870.02 605.97 C 846.96 580.20 823.95 554.38 800.98 528.54 C 799.87 528.44 799.42 528.96 799.63 530.09 C 799.48 575.90 799.77 621.71 799.48 667.52 C 773.81 667.60 748.14 667.52 722.48 667.52 C 722.12 648.32 722.50 629.12 722.36 609.93 C 729.36 599.22 736.35 588.29 740.53 576.11 C 746.84 560.82 750.75 544.55 752.36 528.09 C 752.37 520.38 753.92 512.67 752.83 504.97 C 752.09 483.04 746.82 461.30 737.80 441.31 C 734.06 432.14 728.04 424.13 722.46 416.03 C 722.27 385.33 722.31 354.60 722.53 323.89 Z" />
<path fill="#FFFFFF" opacity="1.00" d=" M 419.97 370.11 C 439.91 366.53 460.56 368.46 480.00 373.83 C 484.65 375.90 489.52 377.49 493.96 380.04 C 483.96 388.24 473.89 396.62 466.01 406.97 C 462.59 411.01 459.96 415.62 456.71 419.79 C 439.26 416.40 420.80 419.00 404.73 426.51 C 398.47 428.82 392.78 432.45 387.43 436.40 C 378.56 443.74 369.63 451.60 364.17 461.91 C 362.29 465.81 360.15 469.58 357.68 473.13 C 357.59 473.69 357.41 474.79 357.32 475.34 C 354.10 480.73 353.23 487.03 351.66 493.00 C 349.71 500.49 350.33 508.28 350.23 515.94 C 349.99 526.46 352.69 536.81 355.98 546.72 C 359.43 554.94 363.75 562.83 368.94 570.07 C 379.99 584.32 394.69 596.19 411.96 601.88 C 424.73 606.70 438.61 607.40 452.11 606.55 C 458.59 605.75 465.05 604.35 471.12 601.89 C 490.60 594.88 507.51 581.11 518.13 563.31 C 529.85 545.65 532.56 523.67 531.25 502.95 C 530.61 497.57 529.75 492.22 528.33 486.99 C 527.60 483.93 526.65 480.42 528.20 477.47 C 535.94 462.56 548.82 449.75 565.01 444.46 C 567.47 447.99 569.59 451.76 570.90 455.88 C 572.89 460.80 574.27 465.93 576.15 470.89 C 579.41 485.62 582.99 500.56 582.37 515.75 C 581.45 534.22 578.16 552.78 570.93 569.87 C 565.39 583.45 557.36 595.81 548.48 607.41 C 536.21 620.51 522.57 632.57 506.61 640.98 C 500.67 644.07 494.63 647.48 488.03 648.86 C 488.61 648.92 489.20 649.00 489.79 649.08 C 466.35 657.81 440.61 659.78 416.05 655.30 C 409.65 653.93 403.10 652.95 397.03 650.40 C 392.70 648.72 388.51 646.72 384.26 644.86 C 374.41 641.07 365.89 634.68 357.26 628.75 C 348.38 622.65 341.43 614.33 333.86 606.78 C 325.62 596.75 318.60 585.68 313.22 573.86 C 308.56 565.50 306.24 556.14 303.88 546.94 C 298.33 525.59 297.85 502.86 302.96 481.37 C 304.15 474.35 306.92 467.76 308.70 460.89 C 310.89 456.28 312.75 451.51 315.15 446.99 C 320.16 436.52 326.24 426.52 334.19 418.00 C 338.65 413.51 342.39 408.29 347.38 404.33 C 358.50 393.74 372.09 386.12 385.98 379.80 C 396.74 374.90 408.26 371.65 419.97 370.11 Z" />
<path fill="#FFFFFF" opacity="1.00" d=" M 551.07 373.88 C 582.82 365.40 617.85 365.95 648.03 379.81 C 660.34 385.57 671.92 392.86 682.11 401.88 C 689.24 407.42 694.90 414.50 700.58 421.45 C 711.46 434.07 718.76 449.37 724.17 465.03 C 730.96 484.53 732.88 505.50 731.20 526.01 C 729.99 538.55 727.66 551.07 723.15 562.86 C 722.77 563.92 722.41 564.98 722.07 566.06 C 718.21 574.67 714.99 583.70 709.38 591.38 C 701.41 602.53 693.37 613.94 682.59 622.58 C 673.24 631.28 662.42 638.20 651.17 644.16 C 642.93 647.67 634.85 651.67 626.03 653.54 C 618.55 655.89 610.77 656.92 602.98 657.52 C 593.67 657.64 584.27 658.31 575.04 656.75 C 566.64 656.16 558.60 653.41 550.26 652.46 C 551.48 652.27 552.73 652.13 553.98 652.06 C 548.63 651.70 544.23 648.30 539.07 647.22 C 539.07 645.03 540.63 643.56 542.20 642.29 C 555.20 632.24 565.88 619.52 575.42 606.22 C 585.77 607.35 596.36 608.26 606.64 606.03 C 616.86 604.28 626.43 600.06 635.53 595.21 C 644.43 589.46 653.07 582.99 659.71 574.64 C 685.40 544.10 689.21 496.94 668.05 462.97 C 663.51 454.27 656.40 447.34 649.35 440.67 C 643.92 435.59 637.48 431.82 631.04 428.17 C 603.73 413.98 569.12 415.89 543.18 432.30 C 533.67 438.13 525.83 446.24 518.71 454.73 C 514.29 460.27 511.43 466.80 507.87 472.88 C 504.19 481.85 501.96 491.34 500.55 500.91 C 499.92 513.48 499.91 526.28 503.18 538.53 C 504.05 541.47 505.76 544.85 503.88 547.78 C 495.56 562.40 483.05 575.42 466.96 581.23 C 460.19 569.76 456.00 556.94 453.37 543.94 C 450.78 534.19 450.55 524.04 449.99 514.03 C 449.58 499.06 452.43 484.24 455.95 469.74 C 458.14 464.51 459.36 458.92 461.87 453.81 C 467.71 441.04 475.26 429.04 484.41 418.38 C 493.57 406.47 505.60 397.18 517.93 388.77 C 523.23 385.85 528.44 382.71 534.00 380.29 C 536.69 379.18 539.38 378.05 542.04 376.85 C 545.09 375.99 548.11 375.02 551.07 373.88 Z" />
<path fill="#FFFFFF" opacity="1.00" d=" M 244.12 648.31 C 260.34 626.10 276.52 603.85 293.07 581.88 C 293.74 583.12 294.40 584.36 295.06 585.61 C 298.43 592.97 302.96 599.69 307.38 606.44 C 315.42 617.34 323.86 628.11 334.31 636.82 C 339.35 640.54 343.78 644.99 348.94 648.56 C 345.37 655.78 339.83 661.81 335.08 668.27 C 321.32 687.22 307.08 705.81 293.59 724.96 C 293.62 725.74 293.66 726.53 293.71 727.34 C 396.47 727.35 499.23 727.35 601.99 727.35 C 605.22 727.42 608.40 728.04 611.62 728.36 C 603.91 736.31 598.59 746.18 591.57 754.70 C 583.29 765.13 576.24 776.50 567.69 786.72 C 560.81 796.00 554.16 805.46 547.07 814.58 C 414.35 814.65 281.63 814.54 148.90 814.62 C 139.60 814.49 130.28 814.96 120.99 814.37 C 132.75 800.21 142.72 784.66 154.05 770.16 C 163.58 756.44 174.20 743.53 183.77 729.83 C 197.21 712.12 210.06 693.97 223.43 676.20 C 229.91 666.61 236.94 657.39 244.12 648.31 Z" />
</g>
</svg>
